<mxfile host="app.diagrams.net" modified="2023-03-11T16:56:27.211Z" agent="5.0 (Windows NT 10.0; Win64; x64) AppleWebKit/537.36 (KHTML, like Gecko) Chrome/109.0.0.0 Safari/537.36" etag="z4p3eHHaHCVLyk8tTx0L" version="21.0.6" type="github">
  <diagram name="第 1 页" id="9qzswkBztqt6K94VhE5s">
    <mxGraphModel dx="1861" dy="2776" grid="1" gridSize="10" guides="1" tooltips="1" connect="1" arrows="1" fold="1" page="1" pageScale="1" pageWidth="827" pageHeight="1169" math="0" shadow="0">
      <root>
        <mxCell id="0" />
        <mxCell id="1" parent="0" />
        <mxCell id="01-eE3vkVnuRhYh0XWzM-2" value="&lt;font style=&quot;font-size: 18px;&quot;&gt;Building&lt;/font&gt;" style="rounded=0;whiteSpace=wrap;html=1;" parent="1" vertex="1">
          <mxGeometry x="90" y="-1140" width="110" height="40" as="geometry" />
        </mxCell>
        <mxCell id="01-eE3vkVnuRhYh0XWzM-3" value="" style="endArrow=none;html=1;rounded=0;" parent="1" edge="1">
          <mxGeometry width="50" height="50" relative="1" as="geometry">
            <mxPoint x="30" y="-1090" as="sourcePoint" />
            <mxPoint x="30" y="-1150" as="targetPoint" />
            <Array as="points">
              <mxPoint x="90" y="-1120" />
            </Array>
          </mxGeometry>
        </mxCell>
        <mxCell id="01-eE3vkVnuRhYh0XWzM-9" value="&lt;u&gt;&lt;font style=&quot;font-size: 18px;&quot;&gt;Name&lt;/font&gt;&lt;/u&gt;" style="ellipse;whiteSpace=wrap;html=1;" parent="1" vertex="1">
          <mxGeometry x="-40" y="-1180" width="70" height="50" as="geometry" />
        </mxCell>
        <mxCell id="01-eE3vkVnuRhYh0XWzM-10" value="&lt;font style=&quot;font-size: 18px;&quot;&gt;&lt;u&gt;B#&lt;/u&gt;&lt;/font&gt;" style="ellipse;whiteSpace=wrap;html=1;" parent="1" vertex="1">
          <mxGeometry x="-40" y="-1120" width="70" height="50" as="geometry" />
        </mxCell>
        <mxCell id="01-eE3vkVnuRhYh0XWzM-17" value="" style="endArrow=none;html=1;rounded=0;exitX=1;exitY=0.5;exitDx=0;exitDy=0;startArrow=none;" parent="1" source="01-eE3vkVnuRhYh0XWzM-18" edge="1">
          <mxGeometry width="50" height="50" relative="1" as="geometry">
            <mxPoint x="240" y="-1110" as="sourcePoint" />
            <mxPoint x="460" y="-1122" as="targetPoint" />
          </mxGeometry>
        </mxCell>
        <mxCell id="01-eE3vkVnuRhYh0XWzM-23" value="" style="endArrow=none;html=1;rounded=0;exitX=1;exitY=0.5;exitDx=0;exitDy=0;" parent="1" source="01-eE3vkVnuRhYh0XWzM-2" target="01-eE3vkVnuRhYh0XWzM-18" edge="1">
          <mxGeometry width="50" height="50" relative="1" as="geometry">
            <mxPoint x="200" y="-1120" as="sourcePoint" />
            <mxPoint x="460" y="-1120" as="targetPoint" />
          </mxGeometry>
        </mxCell>
        <mxCell id="01-eE3vkVnuRhYh0XWzM-18" value="&lt;font style=&quot;font-size: 18px;&quot;&gt;BO&lt;/font&gt;" style="shape=rhombus;double=1;perimeter=rhombusPerimeter;whiteSpace=wrap;html=1;align=center;" parent="1" vertex="1">
          <mxGeometry x="300" y="-1152.5" width="80" height="60" as="geometry" />
        </mxCell>
        <mxCell id="01-eE3vkVnuRhYh0XWzM-24" value="(0,N)" style="text;html=1;align=center;verticalAlign=middle;resizable=0;points=[];autosize=1;strokeColor=none;fillColor=none;" parent="1" vertex="1">
          <mxGeometry x="195" y="-1145" width="50" height="30" as="geometry" />
        </mxCell>
        <mxCell id="01-eE3vkVnuRhYh0XWzM-25" value="(1,1)" style="text;html=1;align=center;verticalAlign=middle;resizable=0;points=[];autosize=1;strokeColor=none;fillColor=none;" parent="1" vertex="1">
          <mxGeometry x="414" y="-1145" width="50" height="30" as="geometry" />
        </mxCell>
        <mxCell id="01-eE3vkVnuRhYh0XWzM-28" value="" style="endArrow=none;html=1;rounded=0;entryX=0.5;entryY=1;entryDx=0;entryDy=0;startArrow=none;" parent="1" source="01-eE3vkVnuRhYh0XWzM-31" target="01-eE3vkVnuRhYh0XWzM-2" edge="1">
          <mxGeometry width="50" height="50" relative="1" as="geometry">
            <mxPoint x="140" y="-570" as="sourcePoint" />
            <mxPoint x="160" y="-1000" as="targetPoint" />
          </mxGeometry>
        </mxCell>
        <mxCell id="01-eE3vkVnuRhYh0XWzM-30" value="&lt;font style=&quot;font-size: 18px;&quot;&gt;Classroom&lt;/font&gt;" style="shape=ext;margin=3;double=1;whiteSpace=wrap;html=1;align=center;" parent="1" vertex="1">
          <mxGeometry x="75" y="-570" width="140" height="50" as="geometry" />
        </mxCell>
        <mxCell id="01-eE3vkVnuRhYh0XWzM-32" value="(1,N)" style="text;html=1;align=center;verticalAlign=middle;resizable=0;points=[];autosize=1;strokeColor=none;fillColor=none;" parent="1" vertex="1">
          <mxGeometry x="135" y="-1105" width="50" height="30" as="geometry" />
        </mxCell>
        <mxCell id="01-eE3vkVnuRhYh0XWzM-33" value="(1,1)" style="text;html=1;align=center;verticalAlign=middle;resizable=0;points=[];autosize=1;strokeColor=none;fillColor=none;" parent="1" vertex="1">
          <mxGeometry x="100" y="-610" width="50" height="30" as="geometry" />
        </mxCell>
        <mxCell id="01-eE3vkVnuRhYh0XWzM-35" value="" style="endArrow=none;html=1;rounded=0;" parent="1" edge="1">
          <mxGeometry width="50" height="50" relative="1" as="geometry">
            <mxPoint x="190" y="-470" as="sourcePoint" />
            <mxPoint x="140" y="-520" as="targetPoint" />
          </mxGeometry>
        </mxCell>
        <mxCell id="01-eE3vkVnuRhYh0XWzM-38" value="" style="endArrow=none;html=1;rounded=0;" parent="1" edge="1">
          <mxGeometry width="50" height="50" relative="1" as="geometry">
            <mxPoint x="90" y="-470" as="sourcePoint" />
            <mxPoint x="140" y="-520" as="targetPoint" />
          </mxGeometry>
        </mxCell>
        <mxCell id="01-eE3vkVnuRhYh0XWzM-39" value="&lt;span style=&quot;border-bottom: 1px dotted&quot;&gt;&lt;font style=&quot;font-size: 18px;&quot;&gt;R#&lt;/font&gt;&lt;/span&gt;" style="ellipse;whiteSpace=wrap;html=1;align=center;" parent="1" vertex="1">
          <mxGeometry x="40" y="-470" width="80" height="40" as="geometry" />
        </mxCell>
        <mxCell id="01-eE3vkVnuRhYh0XWzM-40" value="&lt;font style=&quot;font-size: 18px;&quot;&gt;Seats&lt;/font&gt;" style="ellipse;whiteSpace=wrap;html=1;align=center;" parent="1" vertex="1">
          <mxGeometry x="150" y="-470" width="70" height="40" as="geometry" />
        </mxCell>
        <mxCell id="01-eE3vkVnuRhYh0XWzM-41" value="&lt;font style=&quot;font-size: 18px;&quot;&gt;Office&lt;/font&gt;" style="shape=ext;margin=3;double=1;whiteSpace=wrap;html=1;align=center;" parent="1" vertex="1">
          <mxGeometry x="460" y="-1140" width="100" height="40" as="geometry" />
        </mxCell>
        <mxCell id="01-eE3vkVnuRhYh0XWzM-42" value="&lt;font style=&quot;font-size: 18px;&quot;&gt;Instructor&lt;/font&gt;" style="whiteSpace=wrap;html=1;align=center;" parent="1" vertex="1">
          <mxGeometry x="250" y="-880" width="110" height="40" as="geometry" />
        </mxCell>
        <mxCell id="01-eE3vkVnuRhYh0XWzM-43" value="&lt;font style=&quot;font-size: 18px;&quot;&gt;Chair&lt;/font&gt;" style="whiteSpace=wrap;html=1;align=center;" parent="1" vertex="1">
          <mxGeometry x="400" y="-880" width="110" height="40" as="geometry" />
        </mxCell>
        <mxCell id="01-eE3vkVnuRhYh0XWzM-44" value="&lt;font style=&quot;font-size: 18px;&quot;&gt;Department&lt;/font&gt;" style="whiteSpace=wrap;html=1;align=center;" parent="1" vertex="1">
          <mxGeometry x="650" y="-880" width="120" height="40" as="geometry" />
        </mxCell>
        <mxCell id="01-eE3vkVnuRhYh0XWzM-46" value="&lt;font style=&quot;font-size: 18px;&quot;&gt;Student&lt;/font&gt;" style="whiteSpace=wrap;html=1;align=center;" parent="1" vertex="1">
          <mxGeometry x="750" y="-1140" width="100" height="40" as="geometry" />
        </mxCell>
        <mxCell id="01-eE3vkVnuRhYh0XWzM-49" value="" style="endArrow=none;html=1;rounded=0;" parent="1" edge="1">
          <mxGeometry width="50" height="50" relative="1" as="geometry">
            <mxPoint x="510" y="-1140" as="sourcePoint" />
            <mxPoint x="550" y="-1170" as="targetPoint" />
          </mxGeometry>
        </mxCell>
        <mxCell id="01-eE3vkVnuRhYh0XWzM-50" value="" style="endArrow=none;html=1;rounded=0;entryX=0.5;entryY=0;entryDx=0;entryDy=0;" parent="1" target="01-eE3vkVnuRhYh0XWzM-41" edge="1">
          <mxGeometry width="50" height="50" relative="1" as="geometry">
            <mxPoint x="480" y="-1170" as="sourcePoint" />
            <mxPoint x="520" y="-1210" as="targetPoint" />
          </mxGeometry>
        </mxCell>
        <mxCell id="01-eE3vkVnuRhYh0XWzM-52" value="&lt;span style=&quot;border-bottom: 1px dotted&quot;&gt;&lt;font style=&quot;font-size: 18px;&quot;&gt;R#&lt;/font&gt;&lt;/span&gt;" style="ellipse;whiteSpace=wrap;html=1;align=center;" parent="1" vertex="1">
          <mxGeometry x="440" y="-1210" width="60" height="40" as="geometry" />
        </mxCell>
        <mxCell id="01-eE3vkVnuRhYh0XWzM-53" value="&lt;font style=&quot;font-size: 18px;&quot;&gt;Size&lt;/font&gt;" style="ellipse;whiteSpace=wrap;html=1;align=center;" parent="1" vertex="1">
          <mxGeometry x="520" y="-1210" width="70" height="41" as="geometry" />
        </mxCell>
        <mxCell id="01-eE3vkVnuRhYh0XWzM-55" value="&lt;font style=&quot;font-size: 18px;&quot;&gt;Section&lt;/font&gt;" style="shape=ext;margin=3;double=1;whiteSpace=wrap;html=1;align=center;" parent="1" vertex="1">
          <mxGeometry x="790" y="-880" width="110" height="40" as="geometry" />
        </mxCell>
        <mxCell id="01-eE3vkVnuRhYh0XWzM-60" value="" style="endArrow=none;html=1;rounded=0;" parent="1" edge="1">
          <mxGeometry width="50" height="50" relative="1" as="geometry">
            <mxPoint x="800" y="-1140" as="sourcePoint" />
            <mxPoint x="830" y="-1170" as="targetPoint" />
          </mxGeometry>
        </mxCell>
        <mxCell id="01-eE3vkVnuRhYh0XWzM-61" value="" style="endArrow=none;html=1;rounded=0;entryX=0.5;entryY=0;entryDx=0;entryDy=0;" parent="1" target="01-eE3vkVnuRhYh0XWzM-46" edge="1">
          <mxGeometry width="50" height="50" relative="1" as="geometry">
            <mxPoint x="760" y="-1170" as="sourcePoint" />
            <mxPoint x="780" y="-1219" as="targetPoint" />
          </mxGeometry>
        </mxCell>
        <mxCell id="01-eE3vkVnuRhYh0XWzM-62" value="&lt;font style=&quot;font-size: 18px;&quot;&gt;S#&lt;/font&gt;" style="ellipse;whiteSpace=wrap;html=1;align=center;fontStyle=4;" parent="1" vertex="1">
          <mxGeometry x="720" y="-1210" width="70" height="50" as="geometry" />
        </mxCell>
        <mxCell id="01-eE3vkVnuRhYh0XWzM-63" value="&lt;font style=&quot;font-size: 18px;&quot;&gt;Name&lt;/font&gt;" style="ellipse;whiteSpace=wrap;html=1;align=center;" parent="1" vertex="1">
          <mxGeometry x="800" y="-1210" width="70" height="50" as="geometry" />
        </mxCell>
        <mxCell id="01-eE3vkVnuRhYh0XWzM-64" value="" style="endArrow=none;html=1;rounded=0;" parent="1" edge="1">
          <mxGeometry width="50" height="50" relative="1" as="geometry">
            <mxPoint x="900" y="-870" as="sourcePoint" />
            <mxPoint x="940" y="-910" as="targetPoint" />
          </mxGeometry>
        </mxCell>
        <mxCell id="01-eE3vkVnuRhYh0XWzM-65" value="" style="endArrow=none;html=1;rounded=0;" parent="1" edge="1">
          <mxGeometry width="50" height="50" relative="1" as="geometry">
            <mxPoint x="900" y="-870" as="sourcePoint" />
            <mxPoint x="970" y="-870" as="targetPoint" />
          </mxGeometry>
        </mxCell>
        <mxCell id="01-eE3vkVnuRhYh0XWzM-67" value="" style="endArrow=none;html=1;rounded=0;exitX=1;exitY=0.25;exitDx=0;exitDy=0;" parent="1" source="01-eE3vkVnuRhYh0XWzM-55" edge="1">
          <mxGeometry width="50" height="50" relative="1" as="geometry">
            <mxPoint x="940" y="-800" as="sourcePoint" />
            <mxPoint x="970" y="-830" as="targetPoint" />
          </mxGeometry>
        </mxCell>
        <mxCell id="01-eE3vkVnuRhYh0XWzM-68" value="" style="endArrow=none;html=1;rounded=0;" parent="1" edge="1">
          <mxGeometry width="50" height="50" relative="1" as="geometry">
            <mxPoint x="900" y="-870" as="sourcePoint" />
            <mxPoint x="940" y="-810" as="targetPoint" />
          </mxGeometry>
        </mxCell>
        <mxCell id="01-eE3vkVnuRhYh0XWzM-69" value="&lt;span style=&quot;border-bottom: 1px dotted&quot;&gt;&lt;font style=&quot;font-size: 18px;&quot;&gt;&lt;font style=&quot;&quot;&gt;S&lt;/font&gt;#&lt;/font&gt;&lt;/span&gt;" style="ellipse;whiteSpace=wrap;html=1;align=center;" parent="1" vertex="1">
          <mxGeometry x="930" y="-950" width="70" height="50" as="geometry" />
        </mxCell>
        <mxCell id="01-eE3vkVnuRhYh0XWzM-70" value="&lt;font style=&quot;font-size: 18px;&quot;&gt;Semester&lt;/font&gt;" style="ellipse;whiteSpace=wrap;html=1;align=center;" parent="1" vertex="1">
          <mxGeometry x="965" y="-900" width="100" height="40" as="geometry" />
        </mxCell>
        <mxCell id="01-eE3vkVnuRhYh0XWzM-71" value="&lt;font style=&quot;font-size: 18px;&quot;&gt;Year&lt;/font&gt;" style="ellipse;whiteSpace=wrap;html=1;align=center;" parent="1" vertex="1">
          <mxGeometry x="970" y="-850" width="90" height="50" as="geometry" />
        </mxCell>
        <mxCell id="01-eE3vkVnuRhYh0XWzM-72" value="&lt;font style=&quot;font-size: 18px;&quot;&gt;DayTime&lt;/font&gt;" style="ellipse;whiteSpace=wrap;html=1;align=center;" parent="1" vertex="1">
          <mxGeometry x="910" y="-810" width="80" height="50" as="geometry" />
        </mxCell>
        <mxCell id="01-eE3vkVnuRhYh0XWzM-73" value="" style="endArrow=none;html=1;rounded=0;" parent="1" target="01-eE3vkVnuRhYh0XWzM-75" edge="1">
          <mxGeometry relative="1" as="geometry">
            <mxPoint x="900" y="-870" as="sourcePoint" />
            <mxPoint x="900" y="-760" as="targetPoint" />
          </mxGeometry>
        </mxCell>
        <mxCell id="01-eE3vkVnuRhYh0XWzM-74" value="1" style="resizable=0;html=1;whiteSpace=wrap;align=right;verticalAlign=bottom;" parent="01-eE3vkVnuRhYh0XWzM-73" connectable="0" vertex="1">
          <mxGeometry x="1" relative="1" as="geometry" />
        </mxCell>
        <mxCell id="01-eE3vkVnuRhYh0XWzM-75" value="&lt;font style=&quot;font-size: 18px;&quot;&gt;TextBook&lt;/font&gt;" style="ellipse;shape=doubleEllipse;margin=3;whiteSpace=wrap;html=1;align=center;" parent="1" vertex="1">
          <mxGeometry x="865" y="-750" width="85" height="40" as="geometry" />
        </mxCell>
        <mxCell id="01-eE3vkVnuRhYh0XWzM-76" value="" style="endArrow=none;html=1;rounded=0;" parent="1" edge="1">
          <mxGeometry relative="1" as="geometry">
            <mxPoint x="818" y="-1100" as="sourcePoint" />
            <mxPoint x="820" y="-880" as="targetPoint" />
          </mxGeometry>
        </mxCell>
        <mxCell id="01-eE3vkVnuRhYh0XWzM-78" value="&lt;font style=&quot;font-size: 18px;&quot;&gt;Take&lt;/font&gt;" style="shape=rhombus;perimeter=rhombusPerimeter;whiteSpace=wrap;html=1;align=center;" parent="1" vertex="1">
          <mxGeometry x="780" y="-1010" width="80" height="50" as="geometry" />
        </mxCell>
        <mxCell id="01-eE3vkVnuRhYh0XWzM-82" value="&lt;font style=&quot;font-size: 18px;&quot;&gt;Course&lt;/font&gt;" style="shape=ext;margin=3;double=1;whiteSpace=wrap;html=1;align=center;" parent="1" vertex="1">
          <mxGeometry x="535" y="-660" width="120" height="50" as="geometry" />
        </mxCell>
        <mxCell id="01-eE3vkVnuRhYh0XWzM-85" value="" style="endArrow=none;html=1;rounded=0;exitX=0.5;exitY=0;exitDx=0;exitDy=0;entryX=0;entryY=0.5;entryDx=0;entryDy=0;" parent="1" source="01-eE3vkVnuRhYh0XWzM-42" target="01-eE3vkVnuRhYh0XWzM-41" edge="1">
          <mxGeometry width="50" height="50" relative="1" as="geometry">
            <mxPoint x="310" y="-890" as="sourcePoint" />
            <mxPoint x="305" y="-1030" as="targetPoint" />
            <Array as="points">
              <mxPoint x="305" y="-1030" />
            </Array>
          </mxGeometry>
        </mxCell>
        <mxCell id="01-eE3vkVnuRhYh0XWzM-86" value="&lt;font style=&quot;font-size: 18px;&quot;&gt;Work_At&lt;/font&gt;" style="shape=rhombus;perimeter=rhombusPerimeter;whiteSpace=wrap;html=1;align=center;" parent="1" vertex="1">
          <mxGeometry x="270" y="-1060" width="90" height="60" as="geometry" />
        </mxCell>
        <mxCell id="01-eE3vkVnuRhYh0XWzM-89" value="(0,4)" style="text;html=1;align=center;verticalAlign=middle;resizable=0;points=[];autosize=1;strokeColor=none;fillColor=none;" parent="1" vertex="1">
          <mxGeometry x="420" y="-1100" width="50" height="30" as="geometry" />
        </mxCell>
        <mxCell id="01-eE3vkVnuRhYh0XWzM-90" value="(1,1)" style="text;html=1;align=center;verticalAlign=middle;resizable=0;points=[];autosize=1;strokeColor=none;fillColor=none;" parent="1" vertex="1">
          <mxGeometry x="295" y="-905" width="50" height="30" as="geometry" />
        </mxCell>
        <mxCell id="01-eE3vkVnuRhYh0XWzM-93" value="" style="endArrow=none;html=1;rounded=0;entryX=0.25;entryY=1;entryDx=0;entryDy=0;exitX=0.75;exitY=0;exitDx=0;exitDy=0;" parent="1" source="01-eE3vkVnuRhYh0XWzM-43" target="01-eE3vkVnuRhYh0XWzM-41" edge="1">
          <mxGeometry relative="1" as="geometry">
            <mxPoint x="410" y="-970" as="sourcePoint" />
            <mxPoint x="570" y="-970" as="targetPoint" />
          </mxGeometry>
        </mxCell>
        <mxCell id="01-eE3vkVnuRhYh0XWzM-94" value="&lt;font style=&quot;font-size: 18px;&quot;&gt;OC&lt;/font&gt;" style="shape=rhombus;perimeter=rhombusPerimeter;whiteSpace=wrap;html=1;align=center;" parent="1" vertex="1">
          <mxGeometry x="440" y="-1030" width="90" height="60" as="geometry" />
        </mxCell>
        <mxCell id="01-eE3vkVnuRhYh0XWzM-95" value="(0,1)" style="text;html=1;align=center;verticalAlign=middle;resizable=0;points=[];autosize=1;strokeColor=none;fillColor=none;" parent="1" vertex="1">
          <mxGeometry x="475" y="-1105" width="50" height="30" as="geometry" />
        </mxCell>
        <mxCell id="01-eE3vkVnuRhYh0XWzM-96" value="(1,1)" style="text;html=1;align=center;verticalAlign=middle;resizable=0;points=[];autosize=1;strokeColor=none;fillColor=none;" parent="1" vertex="1">
          <mxGeometry x="435" y="-905" width="50" height="30" as="geometry" />
        </mxCell>
        <mxCell id="01-eE3vkVnuRhYh0XWzM-97" value="" style="endArrow=none;html=1;rounded=0;" parent="1" edge="1">
          <mxGeometry relative="1" as="geometry">
            <mxPoint x="390" y="-800" as="sourcePoint" />
            <mxPoint x="450" y="-840" as="targetPoint" />
          </mxGeometry>
        </mxCell>
        <mxCell id="01-eE3vkVnuRhYh0XWzM-98" value="" style="endArrow=none;html=1;rounded=0;" parent="1" edge="1">
          <mxGeometry relative="1" as="geometry">
            <mxPoint x="450" y="-840" as="sourcePoint" />
            <mxPoint x="460" y="-800" as="targetPoint" />
          </mxGeometry>
        </mxCell>
        <mxCell id="01-eE3vkVnuRhYh0XWzM-99" value="" style="endArrow=none;html=1;rounded=0;" parent="1" edge="1">
          <mxGeometry relative="1" as="geometry">
            <mxPoint x="450" y="-840" as="sourcePoint" />
            <mxPoint x="530" y="-800" as="targetPoint" />
          </mxGeometry>
        </mxCell>
        <mxCell id="01-eE3vkVnuRhYh0XWzM-100" value="&lt;font style=&quot;font-size: 18px;&quot;&gt;E#&lt;/font&gt;" style="ellipse;whiteSpace=wrap;html=1;align=center;fontStyle=4;" parent="1" vertex="1">
          <mxGeometry x="360" y="-800" width="70" height="40" as="geometry" />
        </mxCell>
        <mxCell id="01-eE3vkVnuRhYh0XWzM-101" value="&lt;font style=&quot;font-size: 18px;&quot;&gt;Name&lt;/font&gt;" style="ellipse;whiteSpace=wrap;html=1;align=center;" parent="1" vertex="1">
          <mxGeometry x="430" y="-800" width="70" height="40" as="geometry" />
        </mxCell>
        <mxCell id="01-eE3vkVnuRhYh0XWzM-102" value="&lt;font style=&quot;font-size: 18px;&quot;&gt;&lt;font style=&quot;&quot;&gt;Phone&lt;/font&gt;#&lt;/font&gt;" style="ellipse;shape=doubleEllipse;margin=3;whiteSpace=wrap;html=1;align=center;" parent="1" vertex="1">
          <mxGeometry x="500" y="-800" width="80" height="40" as="geometry" />
        </mxCell>
        <mxCell id="01-eE3vkVnuRhYh0XWzM-103" value="" style="endArrow=none;html=1;rounded=0;" parent="1" edge="1">
          <mxGeometry relative="1" as="geometry">
            <mxPoint x="510" y="-860" as="sourcePoint" />
            <mxPoint x="650" y="-860" as="targetPoint" />
          </mxGeometry>
        </mxCell>
        <mxCell id="01-eE3vkVnuRhYh0XWzM-104" value="&lt;font style=&quot;font-size: 18px;&quot;&gt;CD&lt;/font&gt;" style="shape=rhombus;perimeter=rhombusPerimeter;whiteSpace=wrap;html=1;align=center;" parent="1" vertex="1">
          <mxGeometry x="540" y="-880" width="70" height="40" as="geometry" />
        </mxCell>
        <mxCell id="01-eE3vkVnuRhYh0XWzM-105" value="(1,1)" style="text;html=1;align=center;verticalAlign=middle;resizable=0;points=[];autosize=1;strokeColor=none;fillColor=none;" parent="1" vertex="1">
          <mxGeometry x="500" y="-880" width="50" height="30" as="geometry" />
        </mxCell>
        <mxCell id="01-eE3vkVnuRhYh0XWzM-106" value="(0,1)" style="text;html=1;align=center;verticalAlign=middle;resizable=0;points=[];autosize=1;strokeColor=none;fillColor=none;" parent="1" vertex="1">
          <mxGeometry x="605" y="-885" width="50" height="30" as="geometry" />
        </mxCell>
        <mxCell id="01-eE3vkVnuRhYh0XWzM-107" value="" style="endArrow=none;html=1;rounded=0;exitX=0.5;exitY=1;exitDx=0;exitDy=0;startArrow=none;" parent="1" source="01-eE3vkVnuRhYh0XWzM-108" edge="1">
          <mxGeometry relative="1" as="geometry">
            <mxPoint x="550" y="-1030" as="sourcePoint" />
            <mxPoint x="650" y="-880" as="targetPoint" />
            <Array as="points">
              <mxPoint x="650" y="-920" />
            </Array>
          </mxGeometry>
        </mxCell>
        <mxCell id="01-eE3vkVnuRhYh0XWzM-112" value="" style="endArrow=none;html=1;rounded=0;exitX=0.75;exitY=1;exitDx=0;exitDy=0;" parent="1" source="01-eE3vkVnuRhYh0XWzM-41" target="01-eE3vkVnuRhYh0XWzM-108" edge="1">
          <mxGeometry relative="1" as="geometry">
            <mxPoint x="535" y="-1100" as="sourcePoint" />
            <mxPoint x="660" y="-880" as="targetPoint" />
            <Array as="points">
              <mxPoint x="650" y="-1020" />
            </Array>
          </mxGeometry>
        </mxCell>
        <mxCell id="01-eE3vkVnuRhYh0XWzM-108" value="&lt;font style=&quot;font-size: 18px;&quot;&gt;DO&lt;/font&gt;" style="shape=rhombus;perimeter=rhombusPerimeter;whiteSpace=wrap;html=1;align=center;" parent="1" vertex="1">
          <mxGeometry x="610" y="-1020" width="80" height="60" as="geometry" />
        </mxCell>
        <mxCell id="01-eE3vkVnuRhYh0XWzM-113" value="(0,5)" style="text;html=1;align=center;verticalAlign=middle;resizable=0;points=[];autosize=1;strokeColor=none;fillColor=none;" parent="1" vertex="1">
          <mxGeometry x="645" y="-905" width="50" height="30" as="geometry" />
        </mxCell>
        <mxCell id="01-eE3vkVnuRhYh0XWzM-114" value="(0,1)" style="text;html=1;align=center;verticalAlign=middle;resizable=0;points=[];autosize=1;strokeColor=none;fillColor=none;" parent="1" vertex="1">
          <mxGeometry x="550" y="-1105" width="50" height="30" as="geometry" />
        </mxCell>
        <mxCell id="01-eE3vkVnuRhYh0XWzM-115" value="" style="endArrow=none;html=1;rounded=0;exitX=0.25;exitY=1;exitDx=0;exitDy=0;entryX=0.597;entryY=-0.017;entryDx=0;entryDy=0;entryPerimeter=0;" parent="1" source="01-eE3vkVnuRhYh0XWzM-46" target="01-eE3vkVnuRhYh0XWzM-44" edge="1">
          <mxGeometry relative="1" as="geometry">
            <mxPoint x="510" y="-920" as="sourcePoint" />
            <mxPoint x="670" y="-920" as="targetPoint" />
            <Array as="points">
              <mxPoint x="722" y="-1060" />
            </Array>
          </mxGeometry>
        </mxCell>
        <mxCell id="01-eE3vkVnuRhYh0XWzM-116" value="&lt;font style=&quot;font-size: 18px;&quot;&gt;OF&lt;/font&gt;" style="shape=rhombus;perimeter=rhombusPerimeter;whiteSpace=wrap;html=1;align=center;" parent="1" vertex="1">
          <mxGeometry x="690" y="-1060" width="70" height="40" as="geometry" />
        </mxCell>
        <mxCell id="01-eE3vkVnuRhYh0XWzM-117" value="(0,100)" style="text;html=1;align=center;verticalAlign=middle;resizable=0;points=[];autosize=1;strokeColor=none;fillColor=none;" parent="1" vertex="1">
          <mxGeometry x="715" y="-935" width="60" height="30" as="geometry" />
        </mxCell>
        <mxCell id="01-eE3vkVnuRhYh0XWzM-118" value="(1,1)" style="text;html=1;align=center;verticalAlign=middle;resizable=0;points=[];autosize=1;strokeColor=none;fillColor=none;" parent="1" vertex="1">
          <mxGeometry x="705" y="-1105" width="50" height="30" as="geometry" />
        </mxCell>
        <mxCell id="01-eE3vkVnuRhYh0XWzM-119" value="" style="endArrow=none;html=1;rounded=0;" parent="1" edge="1">
          <mxGeometry relative="1" as="geometry">
            <mxPoint x="710" y="-840" as="sourcePoint" />
            <mxPoint x="650" y="-800" as="targetPoint" />
          </mxGeometry>
        </mxCell>
        <mxCell id="01-eE3vkVnuRhYh0XWzM-120" value="" style="endArrow=none;html=1;rounded=0;" parent="1" edge="1">
          <mxGeometry relative="1" as="geometry">
            <mxPoint x="710" y="-840" as="sourcePoint" />
            <mxPoint x="750" y="-800" as="targetPoint" />
          </mxGeometry>
        </mxCell>
        <mxCell id="01-eE3vkVnuRhYh0XWzM-122" value="&lt;font style=&quot;font-size: 18px;&quot;&gt;D#&lt;/font&gt;" style="ellipse;whiteSpace=wrap;html=1;align=center;fontStyle=4;" parent="1" vertex="1">
          <mxGeometry x="615" y="-805" width="80" height="40" as="geometry" />
        </mxCell>
        <mxCell id="01-eE3vkVnuRhYh0XWzM-123" value="&lt;font style=&quot;font-size: 18px;&quot;&gt;Name&lt;/font&gt;" style="ellipse;whiteSpace=wrap;html=1;align=center;fontStyle=4;" parent="1" vertex="1">
          <mxGeometry x="715" y="-805" width="75" height="40" as="geometry" />
        </mxCell>
        <mxCell id="01-eE3vkVnuRhYh0XWzM-124" value="" style="endArrow=none;html=1;rounded=0;exitX=0.5;exitY=0;exitDx=0;exitDy=0;startArrow=none;" parent="1" source="01-eE3vkVnuRhYh0XWzM-125" edge="1">
          <mxGeometry relative="1" as="geometry">
            <mxPoint x="590" y="-670" as="sourcePoint" />
            <mxPoint x="670" y="-840" as="targetPoint" />
            <Array as="points">
              <mxPoint x="600" y="-810" />
            </Array>
          </mxGeometry>
        </mxCell>
        <mxCell id="01-eE3vkVnuRhYh0XWzM-126" value="" style="endArrow=none;html=1;rounded=0;entryX=0.5;entryY=1;entryDx=0;entryDy=0;" parent="1" target="01-eE3vkVnuRhYh0XWzM-125" edge="1">
          <mxGeometry relative="1" as="geometry">
            <mxPoint x="600" y="-660" as="sourcePoint" />
            <mxPoint x="600" y="-700" as="targetPoint" />
            <Array as="points" />
          </mxGeometry>
        </mxCell>
        <mxCell id="01-eE3vkVnuRhYh0XWzM-125" value="&lt;font style=&quot;font-size: 18px;&quot;&gt;DC&lt;/font&gt;" style="shape=rhombus;double=1;perimeter=rhombusPerimeter;whiteSpace=wrap;html=1;align=center;" parent="1" vertex="1">
          <mxGeometry x="555" y="-755" width="90" height="50" as="geometry" />
        </mxCell>
        <mxCell id="01-eE3vkVnuRhYh0XWzM-127" value="(0,10)" style="text;html=1;align=center;verticalAlign=middle;resizable=0;points=[];autosize=1;strokeColor=none;fillColor=none;" parent="1" vertex="1">
          <mxGeometry x="595" y="-845" width="50" height="30" as="geometry" />
        </mxCell>
        <mxCell id="01-eE3vkVnuRhYh0XWzM-128" value="(1,1)" style="text;html=1;align=center;verticalAlign=middle;resizable=0;points=[];autosize=1;strokeColor=none;fillColor=none;" parent="1" vertex="1">
          <mxGeometry x="545" y="-685" width="50" height="30" as="geometry" />
        </mxCell>
        <mxCell id="01-eE3vkVnuRhYh0XWzM-129" value="" style="endArrow=none;html=1;rounded=0;startArrow=none;" parent="1" source="01-eE3vkVnuRhYh0XWzM-132" edge="1">
          <mxGeometry relative="1" as="geometry">
            <mxPoint x="540" y="-570" as="sourcePoint" />
            <mxPoint x="590" y="-610" as="targetPoint" />
          </mxGeometry>
        </mxCell>
        <mxCell id="01-eE3vkVnuRhYh0XWzM-130" value="" style="endArrow=none;html=1;rounded=0;" parent="1" edge="1">
          <mxGeometry relative="1" as="geometry">
            <mxPoint x="610" y="-580" as="sourcePoint" />
            <mxPoint x="588" y="-610" as="targetPoint" />
          </mxGeometry>
        </mxCell>
        <mxCell id="01-eE3vkVnuRhYh0XWzM-131" value="" style="endArrow=none;html=1;rounded=0;exitX=0.448;exitY=1.04;exitDx=0;exitDy=0;exitPerimeter=0;" parent="1" source="01-eE3vkVnuRhYh0XWzM-82" edge="1">
          <mxGeometry relative="1" as="geometry">
            <mxPoint x="510" y="-560" as="sourcePoint" />
            <mxPoint x="640" y="-590" as="targetPoint" />
          </mxGeometry>
        </mxCell>
        <mxCell id="01-eE3vkVnuRhYh0XWzM-133" value="" style="endArrow=none;html=1;rounded=0;" parent="1" target="01-eE3vkVnuRhYh0XWzM-132" edge="1">
          <mxGeometry relative="1" as="geometry">
            <mxPoint x="540" y="-570" as="sourcePoint" />
            <mxPoint x="590" y="-610" as="targetPoint" />
          </mxGeometry>
        </mxCell>
        <mxCell id="01-eE3vkVnuRhYh0XWzM-132" value="&lt;span style=&quot;border-bottom: 1px dotted&quot;&gt;&lt;font style=&quot;font-size: 18px;&quot;&gt;C#&lt;/font&gt;&lt;/span&gt;" style="ellipse;whiteSpace=wrap;html=1;align=center;" parent="1" vertex="1">
          <mxGeometry x="500" y="-580" width="60" height="40" as="geometry" />
        </mxCell>
        <mxCell id="01-eE3vkVnuRhYh0XWzM-135" value="&lt;font style=&quot;font-size: 18px;&quot;&gt;Credit_Hour&lt;/font&gt;" style="ellipse;whiteSpace=wrap;html=1;align=center;" parent="1" vertex="1">
          <mxGeometry x="635" y="-605" width="105" height="45" as="geometry" />
        </mxCell>
        <mxCell id="01-eE3vkVnuRhYh0XWzM-136" value="Prerequisite" style="shape=rhombus;perimeter=rhombusPerimeter;whiteSpace=wrap;html=1;align=center;" parent="1" vertex="1">
          <mxGeometry x="400" y="-660" width="90" height="50" as="geometry" />
        </mxCell>
        <mxCell id="01-eE3vkVnuRhYh0XWzM-137" value="" style="endArrow=none;html=1;rounded=0;exitX=0.5;exitY=0;exitDx=0;exitDy=0;entryX=0;entryY=0.5;entryDx=0;entryDy=0;" parent="1" source="01-eE3vkVnuRhYh0XWzM-136" target="01-eE3vkVnuRhYh0XWzM-82" edge="1">
          <mxGeometry relative="1" as="geometry">
            <mxPoint x="510" y="-660" as="sourcePoint" />
            <mxPoint x="670" y="-660" as="targetPoint" />
          </mxGeometry>
        </mxCell>
        <mxCell id="01-eE3vkVnuRhYh0XWzM-138" value="" style="endArrow=none;html=1;rounded=0;exitX=0.5;exitY=1;exitDx=0;exitDy=0;entryX=0;entryY=0.5;entryDx=0;entryDy=0;" parent="1" source="01-eE3vkVnuRhYh0XWzM-136" target="01-eE3vkVnuRhYh0XWzM-82" edge="1">
          <mxGeometry relative="1" as="geometry">
            <mxPoint x="510" y="-660" as="sourcePoint" />
            <mxPoint x="530" y="-635" as="targetPoint" />
          </mxGeometry>
        </mxCell>
        <mxCell id="01-eE3vkVnuRhYh0XWzM-139" value="" style="endArrow=none;html=1;rounded=0;entryX=1;entryY=0.5;entryDx=0;entryDy=0;" parent="1" target="01-eE3vkVnuRhYh0XWzM-82" edge="1">
          <mxGeometry relative="1" as="geometry">
            <mxPoint x="820" y="-840" as="sourcePoint" />
            <mxPoint x="670" y="-740" as="targetPoint" />
            <Array as="points">
              <mxPoint x="790" y="-690" />
            </Array>
          </mxGeometry>
        </mxCell>
        <mxCell id="01-eE3vkVnuRhYh0XWzM-141" value="&lt;font style=&quot;font-size: 18px;&quot;&gt;CS&lt;/font&gt;" style="shape=rhombus;double=1;perimeter=rhombusPerimeter;whiteSpace=wrap;html=1;align=center;" parent="1" vertex="1">
          <mxGeometry x="740" y="-720" width="90" height="50" as="geometry" />
        </mxCell>
        <mxCell id="01-eE3vkVnuRhYh0XWzM-142" value="(1,1)" style="text;html=1;align=center;verticalAlign=middle;resizable=0;points=[];autosize=1;strokeColor=none;fillColor=none;" parent="1" vertex="1">
          <mxGeometry x="810" y="-845" width="50" height="30" as="geometry" />
        </mxCell>
        <mxCell id="01-eE3vkVnuRhYh0XWzM-143" value="(0,N)" style="text;html=1;align=center;verticalAlign=middle;resizable=0;points=[];autosize=1;strokeColor=none;fillColor=none;" parent="1" vertex="1">
          <mxGeometry x="650" y="-640" width="50" height="30" as="geometry" />
        </mxCell>
        <mxCell id="01-eE3vkVnuRhYh0XWzM-144" value="" style="endArrow=none;html=1;rounded=0;exitX=0.5;exitY=1;exitDx=0;exitDy=0;startArrow=none;" parent="1" source="01-eE3vkVnuRhYh0XWzM-145" edge="1">
          <mxGeometry relative="1" as="geometry">
            <mxPoint x="510" y="-750" as="sourcePoint" />
            <mxPoint x="860" y="-840" as="targetPoint" />
            <Array as="points">
              <mxPoint x="380" y="-530" />
              <mxPoint x="830" y="-530" />
            </Array>
          </mxGeometry>
        </mxCell>
        <mxCell id="01-eE3vkVnuRhYh0XWzM-146" value="" style="endArrow=none;html=1;rounded=0;exitX=0.659;exitY=1.008;exitDx=0;exitDy=0;exitPerimeter=0;" parent="1" source="01-eE3vkVnuRhYh0XWzM-42" edge="1">
          <mxGeometry relative="1" as="geometry">
            <mxPoint x="305" y="-840" as="sourcePoint" />
            <mxPoint x="340" y="-670" as="targetPoint" />
            <Array as="points" />
          </mxGeometry>
        </mxCell>
        <mxCell id="01-eE3vkVnuRhYh0XWzM-145" value="&lt;font style=&quot;font-size: 18px;&quot;&gt;IS&lt;/font&gt;" style="shape=rhombus;perimeter=rhombusPerimeter;whiteSpace=wrap;html=1;align=center;" parent="1" vertex="1">
          <mxGeometry x="297.5" y="-670" width="85" height="50" as="geometry" />
        </mxCell>
        <mxCell id="01-eE3vkVnuRhYh0XWzM-147" value="(0,3)" style="text;html=1;align=center;verticalAlign=middle;resizable=0;points=[];autosize=1;strokeColor=none;fillColor=none;" parent="1" vertex="1">
          <mxGeometry x="330" y="-745" width="50" height="30" as="geometry" />
        </mxCell>
        <mxCell id="01-eE3vkVnuRhYh0XWzM-149" value="(1,1)" style="text;html=1;align=center;verticalAlign=middle;resizable=0;points=[];autosize=1;strokeColor=none;fillColor=none;" parent="1" vertex="1">
          <mxGeometry x="795" y="-525" width="50" height="30" as="geometry" />
        </mxCell>
        <mxCell id="01-eE3vkVnuRhYh0XWzM-150" value="" style="endArrow=none;html=1;rounded=0;startArrow=none;" parent="1" source="01-eE3vkVnuRhYh0XWzM-151" edge="1">
          <mxGeometry relative="1" as="geometry">
            <mxPoint x="215" y="-540" as="sourcePoint" />
            <mxPoint x="380" y="-530" as="targetPoint" />
          </mxGeometry>
        </mxCell>
        <mxCell id="01-eE3vkVnuRhYh0XWzM-152" value="" style="endArrow=none;html=1;rounded=0;" parent="1" target="01-eE3vkVnuRhYh0XWzM-156" edge="1">
          <mxGeometry relative="1" as="geometry">
            <mxPoint x="240" y="-790" as="sourcePoint" />
            <mxPoint x="260" y="-840" as="targetPoint" />
          </mxGeometry>
        </mxCell>
        <mxCell id="01-eE3vkVnuRhYh0XWzM-153" value="" style="endArrow=none;html=1;rounded=0;" parent="1" target="01-eE3vkVnuRhYh0XWzM-155" edge="1">
          <mxGeometry relative="1" as="geometry">
            <mxPoint x="260" y="-840" as="sourcePoint" />
            <mxPoint x="310" y="-780" as="targetPoint" />
          </mxGeometry>
        </mxCell>
        <mxCell id="01-eE3vkVnuRhYh0XWzM-154" value="" style="endArrow=none;html=1;rounded=0;exitX=1;exitY=0.5;exitDx=0;exitDy=0;" parent="1" source="01-eE3vkVnuRhYh0XWzM-158" edge="1">
          <mxGeometry relative="1" as="geometry">
            <mxPoint x="200" y="-810" as="sourcePoint" />
            <mxPoint x="260" y="-840" as="targetPoint" />
          </mxGeometry>
        </mxCell>
        <mxCell id="01-eE3vkVnuRhYh0XWzM-155" value="&lt;font style=&quot;font-size: 18px;&quot;&gt;E#&lt;/font&gt;" style="ellipse;whiteSpace=wrap;html=1;align=center;fontStyle=4;" parent="1" vertex="1">
          <mxGeometry x="260" y="-800" width="70" height="40" as="geometry" />
        </mxCell>
        <mxCell id="01-eE3vkVnuRhYh0XWzM-156" value="&lt;font style=&quot;font-size: 18px;&quot;&gt;Name&lt;/font&gt;" style="ellipse;whiteSpace=wrap;html=1;align=center;" parent="1" vertex="1">
          <mxGeometry x="180" y="-800" width="80" height="40" as="geometry" />
        </mxCell>
        <mxCell id="01-eE3vkVnuRhYh0XWzM-157" value="" style="endArrow=none;html=1;rounded=0;" parent="1" edge="1">
          <mxGeometry relative="1" as="geometry">
            <mxPoint x="230" y="-800" as="sourcePoint" />
            <mxPoint x="260" y="-840" as="targetPoint" />
          </mxGeometry>
        </mxCell>
        <mxCell id="01-eE3vkVnuRhYh0XWzM-158" value="&lt;font style=&quot;font-size: 18px;&quot;&gt;Phone#&lt;/font&gt;" style="ellipse;shape=doubleEllipse;margin=3;whiteSpace=wrap;html=1;align=center;" parent="1" vertex="1">
          <mxGeometry x="120" y="-840" width="80" height="45" as="geometry" />
        </mxCell>
        <mxCell id="01-eE3vkVnuRhYh0XWzM-159" value="" style="endArrow=none;html=1;rounded=0;entryX=0.5;entryY=1;entryDx=0;entryDy=0;exitX=0.25;exitY=0;exitDx=0;exitDy=0;" parent="1" source="01-eE3vkVnuRhYh0XWzM-30" target="01-eE3vkVnuRhYh0XWzM-31" edge="1">
          <mxGeometry width="50" height="50" relative="1" as="geometry">
            <mxPoint x="140" y="-570" as="sourcePoint" />
            <mxPoint x="145" y="-870" as="targetPoint" />
            <Array as="points">
              <mxPoint x="100" y="-830" />
            </Array>
          </mxGeometry>
        </mxCell>
        <mxCell id="01-eE3vkVnuRhYh0XWzM-31" value="&lt;font style=&quot;font-size: 18px;&quot;&gt;BC&lt;/font&gt;" style="shape=rhombus;double=1;perimeter=rhombusPerimeter;whiteSpace=wrap;html=1;align=center;" parent="1" vertex="1">
          <mxGeometry x="95" y="-940" width="100" height="60" as="geometry" />
        </mxCell>
        <mxCell id="01-eE3vkVnuRhYh0XWzM-160" value="(0,N)" style="text;html=1;align=center;verticalAlign=middle;resizable=0;points=[];autosize=1;strokeColor=none;fillColor=none;" parent="1" vertex="1">
          <mxGeometry x="205" y="-565" width="50" height="30" as="geometry" />
        </mxCell>
        <mxCell id="01-eE3vkVnuRhYh0XWzM-161" value="(1,1)" style="text;html=1;align=center;verticalAlign=middle;resizable=0;points=[];autosize=1;strokeColor=none;fillColor=none;" parent="1" vertex="1">
          <mxGeometry x="310" y="-560" width="50" height="30" as="geometry" />
        </mxCell>
        <mxCell id="01-eE3vkVnuRhYh0XWzM-162" value="" style="endArrow=none;html=1;rounded=0;" parent="1" target="01-eE3vkVnuRhYh0XWzM-151" edge="1">
          <mxGeometry relative="1" as="geometry">
            <mxPoint x="215" y="-540" as="sourcePoint" />
            <mxPoint x="380" y="-530" as="targetPoint" />
          </mxGeometry>
        </mxCell>
        <mxCell id="01-eE3vkVnuRhYh0XWzM-151" value="&lt;font style=&quot;font-size: 18px;&quot;&gt;SC&lt;/font&gt;" style="shape=rhombus;perimeter=rhombusPerimeter;whiteSpace=wrap;html=1;align=center;" parent="1" vertex="1">
          <mxGeometry x="260" y="-560" width="57.5" height="50" as="geometry" />
        </mxCell>
        <mxCell id="rEtnnLCLEdEThjIbV4LK-1" value="&lt;span style=&quot;border-bottom: 1px dotted&quot;&gt;&lt;font style=&quot;font-size: 18px;&quot;&gt;Name&lt;/font&gt;&lt;/span&gt;" style="ellipse;whiteSpace=wrap;html=1;align=center;" vertex="1" parent="1">
          <mxGeometry x="570" y="-584" width="70" height="44" as="geometry" />
        </mxCell>
      </root>
    </mxGraphModel>
  </diagram>
</mxfile>
